# Blender 4.3.2
# www.blender.org
mtllib at.mtl
o Cube
v 0.207500 0.005000 -0.207500
v 0.207500 -0.005000 -0.207500
v 0.207500 0.005000 0.207500
v 0.207500 -0.005000 0.207500
v -0.207500 0.005000 -0.207500
v -0.207500 -0.005000 -0.207500
v -0.207500 0.005000 0.207500
v -0.207500 -0.005000 0.207500
vn -0.0000 1.0000 -0.0000
vn -0.0000 -0.0000 1.0000
vn -1.0000 -0.0000 -0.0000
vn -0.0000 -1.0000 -0.0000
vn 1.0000 -0.0000 -0.0000
vn -0.0000 -0.0000 -1.0000
vt 0.000867 0.001190
vt 0.999026 0.001190
vt 0.999026 0.999349
vt 0.000867 0.999349
vt 0.055018 0.133819
vt 0.018940 0.133819
vt 0.018940 0.097740
vt 0.055018 0.097740
vt 0.055018 0.242054
vt 0.018940 0.242054
vt 0.018940 0.205976
vt 0.055018 0.205976
vt 0.091097 0.169897
vt 0.055018 0.169897
vt 0.091097 0.133819
vt 0.018940 0.169897
s 0
usemtl Material
f 1/1/1 5/2/1 7/3/1 3/4/1
f 4/5/2 3/6/2 7/7/2 8/8/2
f 8/9/3 7/10/3 5/11/3 6/12/3
f 6/13/4 2/14/4 4/5/4 8/15/4
f 2/14/5 1/16/5 3/6/5 4/5/5
f 6/12/6 5/11/6 1/16/6 2/14/6
